<mxfile host="Electron" modified="2024-07-05T22:22:37.824Z" agent="Mozilla/5.0 (X11; Linux x86_64) AppleWebKit/537.36 (KHTML, like Gecko) draw.io/24.5.3 Chrome/124.0.6367.207 Electron/30.0.6 Safari/537.36" etag="Bl0kRpSTvF6MU_ZrQJCe" version="24.5.3" type="device">
  <diagram name="Page-1" id="fQ_WgQiGJqsnwwl_7qo3">
    <mxGraphModel dx="5000" dy="833" grid="1" gridSize="10" guides="1" tooltips="1" connect="1" arrows="1" fold="1" page="0" pageScale="1" pageWidth="827" pageHeight="1169" math="0" shadow="0">
      <root>
        <mxCell id="0" />
        <mxCell id="1" parent="0" />
        <mxCell id="6QwXeuThkFD-9IxJBqtr-515" value="" style="rounded=0;whiteSpace=wrap;html=1;fillColor=none;strokeColor=none;" vertex="1" parent="1">
          <mxGeometry x="-170" y="2185" width="2265" height="1630" as="geometry" />
        </mxCell>
        <mxCell id="6QwXeuThkFD-9IxJBqtr-514" value="" style="endArrow=none;html=1;rounded=0;strokeWidth=6;strokeColor=#F2462C;" edge="1" parent="1">
          <mxGeometry width="50" height="50" relative="1" as="geometry">
            <mxPoint x="1440" y="2440" as="sourcePoint" />
            <mxPoint x="1280" y="2440" as="targetPoint" />
          </mxGeometry>
        </mxCell>
        <mxCell id="6QwXeuThkFD-9IxJBqtr-513" value="" style="endArrow=none;html=1;rounded=0;strokeWidth=6;strokeColor=#F2462C;" edge="1" parent="1">
          <mxGeometry width="50" height="50" relative="1" as="geometry">
            <mxPoint x="1425" y="2420" as="sourcePoint" />
            <mxPoint x="1277" y="2420" as="targetPoint" />
          </mxGeometry>
        </mxCell>
        <mxCell id="6QwXeuThkFD-9IxJBqtr-512" value="" style="endArrow=none;html=1;rounded=0;strokeWidth=6;strokeColor=#F2462C;" edge="1" parent="1">
          <mxGeometry width="50" height="50" relative="1" as="geometry">
            <mxPoint x="1425" y="3580" as="sourcePoint" />
            <mxPoint x="1277" y="3580" as="targetPoint" />
          </mxGeometry>
        </mxCell>
        <mxCell id="6QwXeuThkFD-9IxJBqtr-511" value="" style="endArrow=none;html=1;rounded=0;strokeWidth=6;strokeColor=#F2462C;" edge="1" parent="1">
          <mxGeometry width="50" height="50" relative="1" as="geometry">
            <mxPoint x="1440" y="3560" as="sourcePoint" />
            <mxPoint x="1280" y="3560" as="targetPoint" />
          </mxGeometry>
        </mxCell>
        <mxCell id="6QwXeuThkFD-9IxJBqtr-368" value="" style="endArrow=none;html=1;rounded=0;strokeWidth=6;strokeColor=#52A1F0;" edge="1" parent="1">
          <mxGeometry width="50" height="50" relative="1" as="geometry">
            <mxPoint x="320" y="2880" as="sourcePoint" />
            <mxPoint x="505" y="2879.7599999999998" as="targetPoint" />
          </mxGeometry>
        </mxCell>
        <mxCell id="6QwXeuThkFD-9IxJBqtr-369" value="" style="endArrow=none;html=1;rounded=0;strokeWidth=6;strokeColor=#52A1F0;" edge="1" parent="1">
          <mxGeometry width="50" height="50" relative="1" as="geometry">
            <mxPoint x="320" y="3120" as="sourcePoint" />
            <mxPoint x="505" y="3119.7599999999998" as="targetPoint" />
          </mxGeometry>
        </mxCell>
        <mxCell id="6QwXeuThkFD-9IxJBqtr-370" value="" style="endArrow=none;html=1;rounded=0;strokeWidth=6;strokeColor=#F2462C;" edge="1" parent="1">
          <mxGeometry width="50" height="50" relative="1" as="geometry">
            <mxPoint x="1590" y="2640" as="sourcePoint" />
            <mxPoint x="1331" y="2640" as="targetPoint" />
          </mxGeometry>
        </mxCell>
        <mxCell id="6QwXeuThkFD-9IxJBqtr-371" value="" style="endArrow=none;html=1;rounded=0;strokeWidth=6;strokeColor=#F2462C;" edge="1" parent="1">
          <mxGeometry width="50" height="50" relative="1" as="geometry">
            <mxPoint x="1573" y="2620" as="sourcePoint" />
            <mxPoint x="1324" y="2620" as="targetPoint" />
          </mxGeometry>
        </mxCell>
        <mxCell id="6QwXeuThkFD-9IxJBqtr-372" value="" style="endArrow=none;html=1;rounded=0;strokeWidth=6;strokeColor=#F2462C;" edge="1" parent="1">
          <mxGeometry width="50" height="50" relative="1" as="geometry">
            <mxPoint x="1542" y="2580" as="sourcePoint" />
            <mxPoint x="1315" y="2580" as="targetPoint" />
          </mxGeometry>
        </mxCell>
        <mxCell id="6QwXeuThkFD-9IxJBqtr-373" value="" style="endArrow=none;html=1;rounded=0;strokeWidth=6;strokeColor=#F2462C;" edge="1" parent="1">
          <mxGeometry width="50" height="50" relative="1" as="geometry">
            <mxPoint x="1558" y="2600" as="sourcePoint" />
            <mxPoint x="1320" y="2600" as="targetPoint" />
          </mxGeometry>
        </mxCell>
        <mxCell id="6QwXeuThkFD-9IxJBqtr-374" value="" style="endArrow=none;html=1;rounded=0;strokeWidth=6;strokeColor=#F2462C;" edge="1" parent="1">
          <mxGeometry width="50" height="50" relative="1" as="geometry">
            <mxPoint x="1527" y="2560" as="sourcePoint" />
            <mxPoint x="1310" y="2560" as="targetPoint" />
          </mxGeometry>
        </mxCell>
        <mxCell id="6QwXeuThkFD-9IxJBqtr-375" value="" style="endArrow=none;html=1;rounded=0;strokeWidth=6;strokeColor=#F2462C;" edge="1" parent="1">
          <mxGeometry width="50" height="50" relative="1" as="geometry">
            <mxPoint x="1514" y="2540" as="sourcePoint" />
            <mxPoint x="1306" y="2540" as="targetPoint" />
          </mxGeometry>
        </mxCell>
        <mxCell id="6QwXeuThkFD-9IxJBqtr-376" value="" style="endArrow=none;html=1;rounded=0;strokeWidth=6;strokeColor=#F2462C;" edge="1" parent="1">
          <mxGeometry width="50" height="50" relative="1" as="geometry">
            <mxPoint x="1500.5" y="2520" as="sourcePoint" />
            <mxPoint x="1299.5" y="2520" as="targetPoint" />
          </mxGeometry>
        </mxCell>
        <mxCell id="6QwXeuThkFD-9IxJBqtr-377" value="" style="endArrow=none;html=1;rounded=0;strokeWidth=6;strokeColor=#F2462C;" edge="1" parent="1">
          <mxGeometry width="50" height="50" relative="1" as="geometry">
            <mxPoint x="1483" y="2500" as="sourcePoint" />
            <mxPoint x="1296" y="2500" as="targetPoint" />
          </mxGeometry>
        </mxCell>
        <mxCell id="6QwXeuThkFD-9IxJBqtr-378" value="" style="endArrow=none;html=1;rounded=0;strokeWidth=6;strokeColor=#F2462C;" edge="1" parent="1">
          <mxGeometry width="50" height="50" relative="1" as="geometry">
            <mxPoint x="1469" y="2480" as="sourcePoint" />
            <mxPoint x="1291" y="2480" as="targetPoint" />
          </mxGeometry>
        </mxCell>
        <mxCell id="6QwXeuThkFD-9IxJBqtr-379" value="" style="endArrow=none;html=1;rounded=0;strokeWidth=6;strokeColor=#F2462C;" edge="1" parent="1">
          <mxGeometry width="50" height="50" relative="1" as="geometry">
            <mxPoint x="1453.5" y="2460" as="sourcePoint" />
            <mxPoint x="1284" y="2460" as="targetPoint" />
          </mxGeometry>
        </mxCell>
        <mxCell id="6QwXeuThkFD-9IxJBqtr-380" value="" style="endArrow=none;html=1;rounded=0;strokeWidth=6;strokeColor=#F2462C;" edge="1" parent="1">
          <mxGeometry width="50" height="50" relative="1" as="geometry">
            <mxPoint x="1590" y="3360" as="sourcePoint" />
            <mxPoint x="1331" y="3360" as="targetPoint" />
          </mxGeometry>
        </mxCell>
        <mxCell id="6QwXeuThkFD-9IxJBqtr-381" value="" style="endArrow=none;html=1;rounded=0;strokeWidth=6;strokeColor=#F2462C;" edge="1" parent="1">
          <mxGeometry width="50" height="50" relative="1" as="geometry">
            <mxPoint x="1543" y="3420" as="sourcePoint" />
            <mxPoint x="1316" y="3420" as="targetPoint" />
          </mxGeometry>
        </mxCell>
        <mxCell id="6QwXeuThkFD-9IxJBqtr-382" value="" style="endArrow=none;html=1;rounded=0;strokeWidth=6;strokeColor=#F2462C;" edge="1" parent="1">
          <mxGeometry width="50" height="50" relative="1" as="geometry">
            <mxPoint x="1574" y="3380" as="sourcePoint" />
            <mxPoint x="1325" y="3380" as="targetPoint" />
          </mxGeometry>
        </mxCell>
        <mxCell id="6QwXeuThkFD-9IxJBqtr-383" value="" style="endArrow=none;html=1;rounded=0;strokeWidth=6;strokeColor=#F2462C;" edge="1" parent="1">
          <mxGeometry width="50" height="50" relative="1" as="geometry">
            <mxPoint x="1514" y="3460" as="sourcePoint" />
            <mxPoint x="1306" y="3460" as="targetPoint" />
          </mxGeometry>
        </mxCell>
        <mxCell id="6QwXeuThkFD-9IxJBqtr-384" value="" style="endArrow=none;html=1;rounded=0;strokeWidth=6;strokeColor=#F2462C;" edge="1" parent="1">
          <mxGeometry width="50" height="50" relative="1" as="geometry">
            <mxPoint x="1456" y="3540" as="sourcePoint" />
            <mxPoint x="1286.5" y="3540" as="targetPoint" />
          </mxGeometry>
        </mxCell>
        <mxCell id="6QwXeuThkFD-9IxJBqtr-385" value="" style="endArrow=none;html=1;rounded=0;strokeWidth=6;strokeColor=#F2462C;" edge="1" parent="1">
          <mxGeometry width="50" height="50" relative="1" as="geometry">
            <mxPoint x="1483" y="3500" as="sourcePoint" />
            <mxPoint x="1296" y="3500" as="targetPoint" />
          </mxGeometry>
        </mxCell>
        <mxCell id="6QwXeuThkFD-9IxJBqtr-386" value="" style="endArrow=none;html=1;rounded=0;strokeWidth=6;strokeColor=#F2462C;" edge="1" parent="1">
          <mxGeometry width="50" height="50" relative="1" as="geometry">
            <mxPoint x="1558" y="3400" as="sourcePoint" />
            <mxPoint x="1320" y="3400" as="targetPoint" />
          </mxGeometry>
        </mxCell>
        <mxCell id="6QwXeuThkFD-9IxJBqtr-387" value="" style="endArrow=none;html=1;rounded=0;strokeWidth=6;strokeColor=#F2462C;" edge="1" parent="1">
          <mxGeometry width="50" height="50" relative="1" as="geometry">
            <mxPoint x="1529" y="3440" as="sourcePoint" />
            <mxPoint x="1312" y="3440" as="targetPoint" />
          </mxGeometry>
        </mxCell>
        <mxCell id="6QwXeuThkFD-9IxJBqtr-388" value="" style="endArrow=none;html=1;rounded=0;strokeWidth=6;strokeColor=#F2462C;" edge="1" parent="1">
          <mxGeometry width="50" height="50" relative="1" as="geometry">
            <mxPoint x="1501" y="3480" as="sourcePoint" />
            <mxPoint x="1300" y="3480" as="targetPoint" />
          </mxGeometry>
        </mxCell>
        <mxCell id="6QwXeuThkFD-9IxJBqtr-389" value="" style="endArrow=none;html=1;rounded=0;strokeWidth=6;strokeColor=#F2462C;" edge="1" parent="1">
          <mxGeometry width="50" height="50" relative="1" as="geometry">
            <mxPoint x="1470" y="3520" as="sourcePoint" />
            <mxPoint x="1292" y="3520" as="targetPoint" />
          </mxGeometry>
        </mxCell>
        <mxCell id="6QwXeuThkFD-9IxJBqtr-390" value="" style="endArrow=none;html=1;rounded=0;strokeWidth=6;strokeColor=#7E3CF0;" edge="1" parent="1">
          <mxGeometry width="50" height="50" relative="1" as="geometry">
            <mxPoint x="1550" y="3080" as="sourcePoint" />
            <mxPoint x="1550" y="3160" as="targetPoint" />
          </mxGeometry>
        </mxCell>
        <mxCell id="6QwXeuThkFD-9IxJBqtr-391" value="" style="endArrow=none;html=1;rounded=0;strokeWidth=6;strokeColor=#7E3CF0;" edge="1" parent="1">
          <mxGeometry width="50" height="50" relative="1" as="geometry">
            <mxPoint x="1570" y="3080" as="sourcePoint" />
            <mxPoint x="1570" y="3160" as="targetPoint" />
          </mxGeometry>
        </mxCell>
        <mxCell id="6QwXeuThkFD-9IxJBqtr-392" value="" style="endArrow=none;html=1;rounded=0;strokeWidth=6;strokeColor=#7E3CF0;" edge="1" parent="1">
          <mxGeometry width="50" height="50" relative="1" as="geometry">
            <mxPoint x="1430" y="3080" as="sourcePoint" />
            <mxPoint x="1430" y="3160" as="targetPoint" />
          </mxGeometry>
        </mxCell>
        <mxCell id="6QwXeuThkFD-9IxJBqtr-393" value="" style="endArrow=none;html=1;rounded=0;strokeWidth=6;strokeColor=#7E3CF0;" edge="1" parent="1">
          <mxGeometry width="50" height="50" relative="1" as="geometry">
            <mxPoint x="1450" y="3080" as="sourcePoint" />
            <mxPoint x="1450" y="3160" as="targetPoint" />
          </mxGeometry>
        </mxCell>
        <mxCell id="6QwXeuThkFD-9IxJBqtr-394" value="" style="endArrow=none;html=1;rounded=0;strokeWidth=6;strokeColor=#7E3CF0;" edge="1" parent="1">
          <mxGeometry width="50" height="50" relative="1" as="geometry">
            <mxPoint x="1430" y="2840" as="sourcePoint" />
            <mxPoint x="1430" y="2920" as="targetPoint" />
          </mxGeometry>
        </mxCell>
        <mxCell id="6QwXeuThkFD-9IxJBqtr-395" value="" style="endArrow=none;html=1;rounded=0;strokeWidth=6;strokeColor=#7E3CF0;" edge="1" parent="1">
          <mxGeometry width="50" height="50" relative="1" as="geometry">
            <mxPoint x="1450" y="2840" as="sourcePoint" />
            <mxPoint x="1450" y="2920" as="targetPoint" />
          </mxGeometry>
        </mxCell>
        <mxCell id="6QwXeuThkFD-9IxJBqtr-396" value="" style="endArrow=none;html=1;rounded=0;strokeWidth=6;strokeColor=#7E3CF0;" edge="1" parent="1">
          <mxGeometry width="50" height="50" relative="1" as="geometry">
            <mxPoint x="1550" y="2840" as="sourcePoint" />
            <mxPoint x="1550" y="2920" as="targetPoint" />
          </mxGeometry>
        </mxCell>
        <mxCell id="6QwXeuThkFD-9IxJBqtr-397" value="" style="endArrow=none;html=1;rounded=0;strokeWidth=6;strokeColor=#7E3CF0;" edge="1" parent="1">
          <mxGeometry width="50" height="50" relative="1" as="geometry">
            <mxPoint x="1570" y="2840" as="sourcePoint" />
            <mxPoint x="1570" y="2920" as="targetPoint" />
          </mxGeometry>
        </mxCell>
        <mxCell id="6QwXeuThkFD-9IxJBqtr-398" value="" style="endArrow=none;html=1;rounded=0;strokeWidth=6;strokeColor=#7E3CF0;" edge="1" parent="1">
          <mxGeometry width="50" height="50" relative="1" as="geometry">
            <mxPoint x="260" y="2950.16" as="sourcePoint" />
            <mxPoint x="460" y="2949.8" as="targetPoint" />
          </mxGeometry>
        </mxCell>
        <mxCell id="6QwXeuThkFD-9IxJBqtr-399" value="" style="endArrow=none;html=1;rounded=0;strokeWidth=6;strokeColor=#7E3CF0;" edge="1" parent="1">
          <mxGeometry width="50" height="50" relative="1" as="geometry">
            <mxPoint x="260" y="2930.16" as="sourcePoint" />
            <mxPoint x="460" y="2929.8" as="targetPoint" />
          </mxGeometry>
        </mxCell>
        <mxCell id="6QwXeuThkFD-9IxJBqtr-400" value="" style="endArrow=none;html=1;rounded=0;strokeWidth=6;strokeColor=#7E3CF0;" edge="1" parent="1">
          <mxGeometry width="50" height="50" relative="1" as="geometry">
            <mxPoint x="260" y="3070.16" as="sourcePoint" />
            <mxPoint x="460" y="3069.8" as="targetPoint" />
          </mxGeometry>
        </mxCell>
        <mxCell id="6QwXeuThkFD-9IxJBqtr-401" value="" style="endArrow=none;html=1;rounded=0;strokeWidth=6;strokeColor=#7E3CF0;" edge="1" parent="1">
          <mxGeometry width="50" height="50" relative="1" as="geometry">
            <mxPoint x="260" y="3050.16" as="sourcePoint" />
            <mxPoint x="460" y="3049.8" as="targetPoint" />
          </mxGeometry>
        </mxCell>
        <mxCell id="6QwXeuThkFD-9IxJBqtr-402" value="" style="endArrow=none;html=1;rounded=0;strokeWidth=6;strokeColor=#7E3CF0;" edge="1" parent="1">
          <mxGeometry width="50" height="50" relative="1" as="geometry">
            <mxPoint x="1580" y="3069.74" as="sourcePoint" />
            <mxPoint x="1660" y="3069.74" as="targetPoint" />
          </mxGeometry>
        </mxCell>
        <mxCell id="6QwXeuThkFD-9IxJBqtr-403" value="" style="endArrow=none;html=1;rounded=0;strokeWidth=6;strokeColor=#7E3CF0;" edge="1" parent="1">
          <mxGeometry width="50" height="50" relative="1" as="geometry">
            <mxPoint x="1580" y="3049.74" as="sourcePoint" />
            <mxPoint x="1660" y="3049.74" as="targetPoint" />
          </mxGeometry>
        </mxCell>
        <mxCell id="6QwXeuThkFD-9IxJBqtr-404" value="" style="endArrow=none;html=1;rounded=0;strokeWidth=6;strokeColor=#7E3CF0;" edge="1" parent="1">
          <mxGeometry width="50" height="50" relative="1" as="geometry">
            <mxPoint x="1580" y="2929.74" as="sourcePoint" />
            <mxPoint x="1660" y="2929.74" as="targetPoint" />
          </mxGeometry>
        </mxCell>
        <mxCell id="6QwXeuThkFD-9IxJBqtr-405" value="" style="endArrow=none;html=1;rounded=0;strokeWidth=6;strokeColor=#7E3CF0;" edge="1" parent="1">
          <mxGeometry width="50" height="50" relative="1" as="geometry">
            <mxPoint x="1580" y="2949.74" as="sourcePoint" />
            <mxPoint x="1660" y="2949.74" as="targetPoint" />
          </mxGeometry>
        </mxCell>
        <mxCell id="6QwXeuThkFD-9IxJBqtr-406" value="" style="endArrow=none;html=1;rounded=0;strokeWidth=6;strokeColor=#7E3CF0;" edge="1" parent="1">
          <mxGeometry width="50" height="50" relative="1" as="geometry">
            <mxPoint x="1340" y="3070" as="sourcePoint" />
            <mxPoint x="1420" y="3070" as="targetPoint" />
          </mxGeometry>
        </mxCell>
        <mxCell id="6QwXeuThkFD-9IxJBqtr-407" value="" style="endArrow=none;html=1;rounded=0;strokeWidth=6;strokeColor=#7E3CF0;" edge="1" parent="1">
          <mxGeometry width="50" height="50" relative="1" as="geometry">
            <mxPoint x="1340" y="3050" as="sourcePoint" />
            <mxPoint x="1420" y="3050" as="targetPoint" />
          </mxGeometry>
        </mxCell>
        <mxCell id="6QwXeuThkFD-9IxJBqtr-408" value="" style="endArrow=none;html=1;rounded=0;strokeWidth=6;strokeColor=#7E3CF0;" edge="1" parent="1">
          <mxGeometry width="50" height="50" relative="1" as="geometry">
            <mxPoint x="1340" y="2950" as="sourcePoint" />
            <mxPoint x="1420" y="2950" as="targetPoint" />
          </mxGeometry>
        </mxCell>
        <mxCell id="6QwXeuThkFD-9IxJBqtr-409" value="" style="endArrow=none;html=1;rounded=0;strokeWidth=6;strokeColor=#7E3CF0;" edge="1" parent="1">
          <mxGeometry width="50" height="50" relative="1" as="geometry">
            <mxPoint x="1340" y="2930" as="sourcePoint" />
            <mxPoint x="1420" y="2930" as="targetPoint" />
          </mxGeometry>
        </mxCell>
        <mxCell id="6QwXeuThkFD-9IxJBqtr-410" value="" style="endArrow=none;html=1;rounded=0;strokeWidth=6;strokeColor=#7E3CF0;" edge="1" parent="1">
          <mxGeometry width="50" height="50" relative="1" as="geometry">
            <mxPoint x="860" y="3070" as="sourcePoint" />
            <mxPoint x="940" y="3070" as="targetPoint" />
          </mxGeometry>
        </mxCell>
        <mxCell id="6QwXeuThkFD-9IxJBqtr-411" value="" style="endArrow=none;html=1;rounded=0;strokeWidth=6;strokeColor=#7E3CF0;" edge="1" parent="1">
          <mxGeometry width="50" height="50" relative="1" as="geometry">
            <mxPoint x="860" y="3050" as="sourcePoint" />
            <mxPoint x="940" y="3050" as="targetPoint" />
          </mxGeometry>
        </mxCell>
        <mxCell id="6QwXeuThkFD-9IxJBqtr-412" value="" style="endArrow=none;html=1;rounded=0;strokeWidth=6;strokeColor=#7E3CF0;" edge="1" parent="1">
          <mxGeometry width="50" height="50" relative="1" as="geometry">
            <mxPoint x="860" y="2930" as="sourcePoint" />
            <mxPoint x="940" y="2930" as="targetPoint" />
          </mxGeometry>
        </mxCell>
        <mxCell id="6QwXeuThkFD-9IxJBqtr-413" value="" style="endArrow=none;html=1;rounded=0;strokeWidth=6;strokeColor=#7E3CF0;" edge="1" parent="1">
          <mxGeometry width="50" height="50" relative="1" as="geometry">
            <mxPoint x="860" y="2950" as="sourcePoint" />
            <mxPoint x="940" y="2950" as="targetPoint" />
          </mxGeometry>
        </mxCell>
        <mxCell id="6QwXeuThkFD-9IxJBqtr-414" value="" style="endArrow=none;html=1;rounded=0;strokeWidth=6;strokeColor=#7E3CF0;" edge="1" parent="1">
          <mxGeometry width="50" height="50" relative="1" as="geometry">
            <mxPoint x="1100" y="3050" as="sourcePoint" />
            <mxPoint x="1180" y="3050" as="targetPoint" />
          </mxGeometry>
        </mxCell>
        <mxCell id="6QwXeuThkFD-9IxJBqtr-415" value="" style="endArrow=none;html=1;rounded=0;strokeWidth=6;strokeColor=#7E3CF0;" edge="1" parent="1">
          <mxGeometry width="50" height="50" relative="1" as="geometry">
            <mxPoint x="1100" y="3070" as="sourcePoint" />
            <mxPoint x="1180" y="3070" as="targetPoint" />
          </mxGeometry>
        </mxCell>
        <mxCell id="6QwXeuThkFD-9IxJBqtr-416" value="" style="endArrow=none;html=1;rounded=0;strokeWidth=6;strokeColor=#7E3CF0;" edge="1" parent="1">
          <mxGeometry width="50" height="50" relative="1" as="geometry">
            <mxPoint x="1100" y="2930" as="sourcePoint" />
            <mxPoint x="1180" y="2930" as="targetPoint" />
          </mxGeometry>
        </mxCell>
        <mxCell id="6QwXeuThkFD-9IxJBqtr-417" value="" style="endArrow=none;html=1;rounded=0;strokeWidth=6;strokeColor=#7E3CF0;" edge="1" parent="1">
          <mxGeometry width="50" height="50" relative="1" as="geometry">
            <mxPoint x="1100" y="2950" as="sourcePoint" />
            <mxPoint x="1180" y="2950" as="targetPoint" />
          </mxGeometry>
        </mxCell>
        <mxCell id="6QwXeuThkFD-9IxJBqtr-418" value="" style="endArrow=none;html=1;rounded=0;strokeWidth=6;strokeColor=#FFFFFF;" edge="1" parent="1">
          <mxGeometry width="50" height="50" relative="1" as="geometry">
            <mxPoint x="1660" y="3020" as="sourcePoint" />
            <mxPoint x="1660" y="3020" as="targetPoint" />
            <Array as="points">
              <mxPoint x="1660" y="3080" />
              <mxPoint x="1700" y="3110" />
              <mxPoint x="1700" y="3210" />
              <mxPoint x="1410" y="3600" />
              <mxPoint x="1270" y="3600" />
              <mxPoint x="1370" y="3200" />
              <mxPoint x="1200" y="3200" />
              <mxPoint x="1140" y="3240" />
              <mxPoint x="920" y="3240" />
              <mxPoint x="840" y="3200" />
              <mxPoint x="770" y="3200" />
              <mxPoint x="700" y="3200" />
              <mxPoint x="620" y="3200" />
              <mxPoint x="580" y="3160" />
              <mxPoint x="380" y="3160" />
              <mxPoint x="260" y="3080" />
              <mxPoint x="260" y="2920" />
              <mxPoint x="380" y="2840" />
              <mxPoint x="580" y="2840" />
              <mxPoint x="620" y="2800" />
              <mxPoint x="700" y="2800" />
              <mxPoint x="840" y="2800" />
              <mxPoint x="900" y="2760" />
              <mxPoint x="1140" y="2760" />
              <mxPoint x="1200" y="2800" />
              <mxPoint x="1370" y="2800" />
              <mxPoint x="1270" y="2400" />
              <mxPoint x="1410" y="2400" />
              <mxPoint x="1700" y="2790" />
              <mxPoint x="1700" y="2890" />
              <mxPoint x="1660" y="2920" />
            </Array>
          </mxGeometry>
        </mxCell>
        <mxCell id="6QwXeuThkFD-9IxJBqtr-419" value="" style="rounded=0;whiteSpace=wrap;html=1;strokeColor=#C2C2C2;fillColor=none;strokeWidth=8;" vertex="1" parent="1">
          <mxGeometry x="700" y="2920" width="160" height="160" as="geometry" />
        </mxCell>
        <mxCell id="6QwXeuThkFD-9IxJBqtr-420" value="" style="rounded=0;whiteSpace=wrap;html=1;strokeColor=#C2C2C2;fillColor=none;strokeWidth=8;" vertex="1" parent="1">
          <mxGeometry x="1180" y="2920" width="160" height="160" as="geometry" />
        </mxCell>
        <mxCell id="6QwXeuThkFD-9IxJBqtr-421" value="" style="rounded=0;whiteSpace=wrap;html=1;strokeColor=#C2C2C2;fillColor=none;strokeWidth=8;" vertex="1" parent="1">
          <mxGeometry x="940" y="2810" width="160" height="160" as="geometry" />
        </mxCell>
        <mxCell id="6QwXeuThkFD-9IxJBqtr-422" value="" style="rounded=0;whiteSpace=wrap;html=1;strokeColor=#C2C2C2;fillColor=none;strokeWidth=8;" vertex="1" parent="1">
          <mxGeometry x="940" y="3030" width="160" height="160" as="geometry" />
        </mxCell>
        <mxCell id="6QwXeuThkFD-9IxJBqtr-423" value="" style="rounded=0;whiteSpace=wrap;html=1;strokeColor=#C2C2C2;fillColor=none;strokeWidth=8;" vertex="1" parent="1">
          <mxGeometry x="1420" y="2920" width="160" height="160" as="geometry" />
        </mxCell>
        <mxCell id="6QwXeuThkFD-9IxJBqtr-424" value="" style="endArrow=none;html=1;rounded=0;strokeWidth=6;strokeColor=#62BCF0;" edge="1" parent="1">
          <mxGeometry width="50" height="50" relative="1" as="geometry">
            <mxPoint x="950" y="3020" as="sourcePoint" />
            <mxPoint x="950" y="2980" as="targetPoint" />
          </mxGeometry>
        </mxCell>
        <mxCell id="6QwXeuThkFD-9IxJBqtr-425" value="" style="endArrow=none;html=1;rounded=0;strokeWidth=6;strokeColor=#62BCF0;" edge="1" parent="1">
          <mxGeometry width="50" height="50" relative="1" as="geometry">
            <mxPoint x="970" y="3020" as="sourcePoint" />
            <mxPoint x="970" y="2980" as="targetPoint" />
          </mxGeometry>
        </mxCell>
        <mxCell id="6QwXeuThkFD-9IxJBqtr-426" value="" style="endArrow=none;html=1;rounded=0;strokeWidth=6;strokeColor=#62BCF0;" edge="1" parent="1">
          <mxGeometry width="50" height="50" relative="1" as="geometry">
            <mxPoint x="1090" y="3020" as="sourcePoint" />
            <mxPoint x="1090" y="2980" as="targetPoint" />
          </mxGeometry>
        </mxCell>
        <mxCell id="6QwXeuThkFD-9IxJBqtr-427" value="" style="endArrow=none;html=1;rounded=0;strokeWidth=6;strokeColor=#62BCF0;" edge="1" parent="1">
          <mxGeometry width="50" height="50" relative="1" as="geometry">
            <mxPoint x="1070" y="3020" as="sourcePoint" />
            <mxPoint x="1070" y="2980" as="targetPoint" />
          </mxGeometry>
        </mxCell>
        <mxCell id="6QwXeuThkFD-9IxJBqtr-428" value="" style="endArrow=none;html=1;rounded=0;strokeWidth=6;strokeColor=#62BCF0;" edge="1" parent="1">
          <mxGeometry width="50" height="50" relative="1" as="geometry">
            <mxPoint x="1030" y="3020" as="sourcePoint" />
            <mxPoint x="1030" y="2980" as="targetPoint" />
          </mxGeometry>
        </mxCell>
        <mxCell id="6QwXeuThkFD-9IxJBqtr-429" value="" style="endArrow=none;html=1;rounded=0;strokeWidth=6;strokeColor=#62BCF0;" edge="1" parent="1">
          <mxGeometry width="50" height="50" relative="1" as="geometry">
            <mxPoint x="1010" y="3020" as="sourcePoint" />
            <mxPoint x="1010" y="2980" as="targetPoint" />
          </mxGeometry>
        </mxCell>
        <mxCell id="6QwXeuThkFD-9IxJBqtr-430" value="" style="ellipse;whiteSpace=wrap;html=1;fillColor=none;strokeWidth=6;strokeColor=#B6F0EA;" vertex="1" parent="1">
          <mxGeometry x="870" y="2970" width="60" height="60" as="geometry" />
        </mxCell>
        <mxCell id="6QwXeuThkFD-9IxJBqtr-431" value="" style="ellipse;whiteSpace=wrap;html=1;fillColor=none;strokeWidth=6;strokeColor=#B6F0EA;" vertex="1" parent="1">
          <mxGeometry x="1110" y="2970" width="60" height="60" as="geometry" />
        </mxCell>
        <mxCell id="6QwXeuThkFD-9IxJBqtr-432" value="" style="ellipse;whiteSpace=wrap;html=1;fillColor=none;strokeWidth=6;strokeColor=#B6F0EA;" vertex="1" parent="1">
          <mxGeometry x="1350" y="2970" width="60" height="60" as="geometry" />
        </mxCell>
        <mxCell id="6QwXeuThkFD-9IxJBqtr-433" value="" style="endArrow=none;html=1;rounded=0;strokeWidth=6;strokeColor=#F08A24;" edge="1" parent="1">
          <mxGeometry width="50" height="50" relative="1" as="geometry">
            <mxPoint x="1235" y="3145" as="sourcePoint" />
            <mxPoint x="1235" y="3095" as="targetPoint" />
          </mxGeometry>
        </mxCell>
        <mxCell id="6QwXeuThkFD-9IxJBqtr-434" value="" style="endArrow=none;html=1;rounded=0;strokeWidth=6;strokeColor=#F08A24;" edge="1" parent="1">
          <mxGeometry width="50" height="50" relative="1" as="geometry">
            <mxPoint x="1250" y="3145" as="sourcePoint" />
            <mxPoint x="1250" y="3095" as="targetPoint" />
          </mxGeometry>
        </mxCell>
        <mxCell id="6QwXeuThkFD-9IxJBqtr-435" value="" style="endArrow=none;html=1;rounded=0;strokeWidth=6;strokeColor=#F08A24;" edge="1" parent="1">
          <mxGeometry width="50" height="50" relative="1" as="geometry">
            <mxPoint x="1285" y="3145" as="sourcePoint" />
            <mxPoint x="1285" y="3095" as="targetPoint" />
          </mxGeometry>
        </mxCell>
        <mxCell id="6QwXeuThkFD-9IxJBqtr-436" value="" style="endArrow=none;html=1;rounded=0;strokeWidth=6;strokeColor=#F08A24;" edge="1" parent="1">
          <mxGeometry width="50" height="50" relative="1" as="geometry">
            <mxPoint x="1270" y="3145" as="sourcePoint" />
            <mxPoint x="1270" y="3095" as="targetPoint" />
          </mxGeometry>
        </mxCell>
        <mxCell id="6QwXeuThkFD-9IxJBqtr-437" value="" style="endArrow=none;html=1;rounded=0;strokeWidth=6;strokeColor=#F08A24;" edge="1" parent="1">
          <mxGeometry width="50" height="50" relative="1" as="geometry">
            <mxPoint x="1234.71" y="2905" as="sourcePoint" />
            <mxPoint x="1234.71" y="2855" as="targetPoint" />
          </mxGeometry>
        </mxCell>
        <mxCell id="6QwXeuThkFD-9IxJBqtr-438" value="" style="endArrow=none;html=1;rounded=0;strokeWidth=6;strokeColor=#F08A24;" edge="1" parent="1">
          <mxGeometry width="50" height="50" relative="1" as="geometry">
            <mxPoint x="1249.71" y="2905" as="sourcePoint" />
            <mxPoint x="1249.71" y="2855" as="targetPoint" />
          </mxGeometry>
        </mxCell>
        <mxCell id="6QwXeuThkFD-9IxJBqtr-439" value="" style="endArrow=none;html=1;rounded=0;strokeWidth=6;strokeColor=#F08A24;" edge="1" parent="1">
          <mxGeometry width="50" height="50" relative="1" as="geometry">
            <mxPoint x="1284.71" y="2905" as="sourcePoint" />
            <mxPoint x="1284.71" y="2855" as="targetPoint" />
          </mxGeometry>
        </mxCell>
        <mxCell id="6QwXeuThkFD-9IxJBqtr-440" value="" style="endArrow=none;html=1;rounded=0;strokeWidth=6;strokeColor=#F08A24;" edge="1" parent="1">
          <mxGeometry width="50" height="50" relative="1" as="geometry">
            <mxPoint x="1269.71" y="2905" as="sourcePoint" />
            <mxPoint x="1269.71" y="2855" as="targetPoint" />
          </mxGeometry>
        </mxCell>
        <mxCell id="6QwXeuThkFD-9IxJBqtr-441" value="" style="endArrow=none;html=1;rounded=0;strokeWidth=6;strokeColor=#F08A24;" edge="1" parent="1">
          <mxGeometry width="50" height="50" relative="1" as="geometry">
            <mxPoint x="754.86" y="3145" as="sourcePoint" />
            <mxPoint x="754.86" y="3095" as="targetPoint" />
          </mxGeometry>
        </mxCell>
        <mxCell id="6QwXeuThkFD-9IxJBqtr-442" value="" style="endArrow=none;html=1;rounded=0;strokeWidth=6;strokeColor=#F08A24;" edge="1" parent="1">
          <mxGeometry width="50" height="50" relative="1" as="geometry">
            <mxPoint x="769.86" y="3145" as="sourcePoint" />
            <mxPoint x="769.86" y="3095" as="targetPoint" />
          </mxGeometry>
        </mxCell>
        <mxCell id="6QwXeuThkFD-9IxJBqtr-443" value="" style="endArrow=none;html=1;rounded=0;strokeWidth=6;strokeColor=#F08A24;" edge="1" parent="1">
          <mxGeometry width="50" height="50" relative="1" as="geometry">
            <mxPoint x="804.86" y="3145" as="sourcePoint" />
            <mxPoint x="804.86" y="3095" as="targetPoint" />
          </mxGeometry>
        </mxCell>
        <mxCell id="6QwXeuThkFD-9IxJBqtr-444" value="" style="endArrow=none;html=1;rounded=0;strokeWidth=6;strokeColor=#F08A24;" edge="1" parent="1">
          <mxGeometry width="50" height="50" relative="1" as="geometry">
            <mxPoint x="789.86" y="3145" as="sourcePoint" />
            <mxPoint x="789.86" y="3095" as="targetPoint" />
          </mxGeometry>
        </mxCell>
        <mxCell id="6QwXeuThkFD-9IxJBqtr-445" value="" style="endArrow=none;html=1;rounded=0;strokeWidth=6;strokeColor=#F08A24;" edge="1" parent="1">
          <mxGeometry width="50" height="50" relative="1" as="geometry">
            <mxPoint x="754.57" y="2905" as="sourcePoint" />
            <mxPoint x="754.57" y="2855" as="targetPoint" />
          </mxGeometry>
        </mxCell>
        <mxCell id="6QwXeuThkFD-9IxJBqtr-446" value="" style="endArrow=none;html=1;rounded=0;strokeWidth=6;strokeColor=#F08A24;" edge="1" parent="1">
          <mxGeometry width="50" height="50" relative="1" as="geometry">
            <mxPoint x="769.57" y="2905" as="sourcePoint" />
            <mxPoint x="769.57" y="2855" as="targetPoint" />
          </mxGeometry>
        </mxCell>
        <mxCell id="6QwXeuThkFD-9IxJBqtr-447" value="" style="endArrow=none;html=1;rounded=0;strokeWidth=6;strokeColor=#F08A24;" edge="1" parent="1">
          <mxGeometry width="50" height="50" relative="1" as="geometry">
            <mxPoint x="804.57" y="2905" as="sourcePoint" />
            <mxPoint x="804.57" y="2855" as="targetPoint" />
          </mxGeometry>
        </mxCell>
        <mxCell id="6QwXeuThkFD-9IxJBqtr-448" value="" style="endArrow=none;html=1;rounded=0;strokeWidth=6;strokeColor=#F08A24;" edge="1" parent="1">
          <mxGeometry width="50" height="50" relative="1" as="geometry">
            <mxPoint x="789.57" y="2905" as="sourcePoint" />
            <mxPoint x="789.57" y="2855" as="targetPoint" />
          </mxGeometry>
        </mxCell>
        <mxCell id="6QwXeuThkFD-9IxJBqtr-449" value="" style="ellipse;whiteSpace=wrap;html=1;fillColor=none;strokeWidth=6;strokeColor=#B6F0EA;" vertex="1" parent="1">
          <mxGeometry x="1590" y="2970" width="60" height="60" as="geometry" />
        </mxCell>
        <mxCell id="6QwXeuThkFD-9IxJBqtr-450" value="" style="ellipse;whiteSpace=wrap;html=1;fillColor=none;strokeWidth=6;strokeColor=#B6F0EA;" vertex="1" parent="1">
          <mxGeometry x="390" y="2969.8" width="60" height="60" as="geometry" />
        </mxCell>
        <mxCell id="6QwXeuThkFD-9IxJBqtr-451" value="" style="endArrow=none;html=1;rounded=0;strokeWidth=6;strokeColor=#5D5C5E;" edge="1" parent="1">
          <mxGeometry width="50" height="50" relative="1" as="geometry">
            <mxPoint x="270" y="3000.16" as="sourcePoint" />
            <mxPoint x="380" y="2999.96" as="targetPoint" />
          </mxGeometry>
        </mxCell>
        <mxCell id="6QwXeuThkFD-9IxJBqtr-452" value="" style="endArrow=none;html=1;rounded=0;strokeWidth=6;strokeColor=#7E3CF0;" edge="1" parent="1">
          <mxGeometry width="50" height="50" relative="1" as="geometry">
            <mxPoint x="620" y="3069.8" as="sourcePoint" />
            <mxPoint x="700" y="3069.8" as="targetPoint" />
          </mxGeometry>
        </mxCell>
        <mxCell id="6QwXeuThkFD-9IxJBqtr-453" value="" style="endArrow=none;html=1;rounded=0;strokeWidth=6;strokeColor=#7E3CF0;" edge="1" parent="1">
          <mxGeometry width="50" height="50" relative="1" as="geometry">
            <mxPoint x="620" y="3049.8" as="sourcePoint" />
            <mxPoint x="700" y="3049.8" as="targetPoint" />
          </mxGeometry>
        </mxCell>
        <mxCell id="6QwXeuThkFD-9IxJBqtr-454" value="" style="endArrow=none;html=1;rounded=0;strokeWidth=6;strokeColor=#7E3CF0;" edge="1" parent="1">
          <mxGeometry width="50" height="50" relative="1" as="geometry">
            <mxPoint x="620" y="2929.8" as="sourcePoint" />
            <mxPoint x="700" y="2929.8" as="targetPoint" />
          </mxGeometry>
        </mxCell>
        <mxCell id="6QwXeuThkFD-9IxJBqtr-455" value="" style="endArrow=none;html=1;rounded=0;strokeWidth=6;strokeColor=#7E3CF0;" edge="1" parent="1">
          <mxGeometry width="50" height="50" relative="1" as="geometry">
            <mxPoint x="620" y="2949.8" as="sourcePoint" />
            <mxPoint x="700" y="2949.8" as="targetPoint" />
          </mxGeometry>
        </mxCell>
        <mxCell id="6QwXeuThkFD-9IxJBqtr-456" value="" style="ellipse;whiteSpace=wrap;html=1;fillColor=none;strokeWidth=6;strokeColor=#B6F0EA;" vertex="1" parent="1">
          <mxGeometry x="630" y="2969.8" width="60" height="60" as="geometry" />
        </mxCell>
        <mxCell id="6QwXeuThkFD-9IxJBqtr-457" value="" style="rounded=0;whiteSpace=wrap;html=1;strokeColor=#C2C2C2;fillColor=none;strokeWidth=8;" vertex="1" parent="1">
          <mxGeometry x="460" y="2919.58" width="160" height="160" as="geometry" />
        </mxCell>
        <mxCell id="6QwXeuThkFD-9IxJBqtr-458" value="" style="endArrow=none;html=1;rounded=0;strokeWidth=6;strokeColor=#F08A24;" edge="1" parent="1">
          <mxGeometry width="50" height="50" relative="1" as="geometry">
            <mxPoint x="514.81" y="3145" as="sourcePoint" />
            <mxPoint x="514.81" y="3095" as="targetPoint" />
          </mxGeometry>
        </mxCell>
        <mxCell id="6QwXeuThkFD-9IxJBqtr-459" value="" style="endArrow=none;html=1;rounded=0;strokeWidth=6;strokeColor=#F08A24;" edge="1" parent="1">
          <mxGeometry width="50" height="50" relative="1" as="geometry">
            <mxPoint x="529.81" y="3145" as="sourcePoint" />
            <mxPoint x="529.81" y="3095" as="targetPoint" />
          </mxGeometry>
        </mxCell>
        <mxCell id="6QwXeuThkFD-9IxJBqtr-460" value="" style="endArrow=none;html=1;rounded=0;strokeWidth=6;strokeColor=#F08A24;" edge="1" parent="1">
          <mxGeometry width="50" height="50" relative="1" as="geometry">
            <mxPoint x="564.81" y="3145" as="sourcePoint" />
            <mxPoint x="564.81" y="3095" as="targetPoint" />
          </mxGeometry>
        </mxCell>
        <mxCell id="6QwXeuThkFD-9IxJBqtr-461" value="" style="endArrow=none;html=1;rounded=0;strokeWidth=6;strokeColor=#F08A24;" edge="1" parent="1">
          <mxGeometry width="50" height="50" relative="1" as="geometry">
            <mxPoint x="549.81" y="3145" as="sourcePoint" />
            <mxPoint x="549.81" y="3095" as="targetPoint" />
          </mxGeometry>
        </mxCell>
        <mxCell id="6QwXeuThkFD-9IxJBqtr-462" value="" style="endArrow=none;html=1;rounded=0;strokeWidth=6;strokeColor=#F08A24;" edge="1" parent="1">
          <mxGeometry width="50" height="50" relative="1" as="geometry">
            <mxPoint x="514.52" y="2905" as="sourcePoint" />
            <mxPoint x="514.52" y="2855" as="targetPoint" />
          </mxGeometry>
        </mxCell>
        <mxCell id="6QwXeuThkFD-9IxJBqtr-463" value="" style="endArrow=none;html=1;rounded=0;strokeWidth=6;strokeColor=#F08A24;" edge="1" parent="1">
          <mxGeometry width="50" height="50" relative="1" as="geometry">
            <mxPoint x="529.52" y="2905" as="sourcePoint" />
            <mxPoint x="529.52" y="2855" as="targetPoint" />
          </mxGeometry>
        </mxCell>
        <mxCell id="6QwXeuThkFD-9IxJBqtr-464" value="" style="endArrow=none;html=1;rounded=0;strokeWidth=6;strokeColor=#F08A24;" edge="1" parent="1">
          <mxGeometry width="50" height="50" relative="1" as="geometry">
            <mxPoint x="564.52" y="2905" as="sourcePoint" />
            <mxPoint x="564.52" y="2855" as="targetPoint" />
          </mxGeometry>
        </mxCell>
        <mxCell id="6QwXeuThkFD-9IxJBqtr-465" value="" style="endArrow=none;html=1;rounded=0;strokeWidth=6;strokeColor=#F08A24;" edge="1" parent="1">
          <mxGeometry width="50" height="50" relative="1" as="geometry">
            <mxPoint x="549.52" y="2905" as="sourcePoint" />
            <mxPoint x="549.52" y="2855" as="targetPoint" />
          </mxGeometry>
        </mxCell>
        <mxCell id="6QwXeuThkFD-9IxJBqtr-466" value="" style="endArrow=none;html=1;rounded=0;strokeWidth=6;strokeColor=#5D5C5E;" edge="1" parent="1">
          <mxGeometry width="50" height="50" relative="1" as="geometry">
            <mxPoint x="640" y="3180" as="sourcePoint" />
            <mxPoint x="640" y="3090" as="targetPoint" />
          </mxGeometry>
        </mxCell>
        <mxCell id="6QwXeuThkFD-9IxJBqtr-467" value="" style="endArrow=none;html=1;rounded=0;strokeWidth=6;strokeColor=#5D5C5E;" edge="1" parent="1">
          <mxGeometry width="50" height="50" relative="1" as="geometry">
            <mxPoint x="659.7" y="3180" as="sourcePoint" />
            <mxPoint x="659.7" y="3090" as="targetPoint" />
          </mxGeometry>
        </mxCell>
        <mxCell id="6QwXeuThkFD-9IxJBqtr-468" value="" style="endArrow=none;html=1;rounded=0;strokeWidth=6;strokeColor=#5D5C5E;" edge="1" parent="1">
          <mxGeometry width="50" height="50" relative="1" as="geometry">
            <mxPoint x="639.78" y="2910" as="sourcePoint" />
            <mxPoint x="639.78" y="2820" as="targetPoint" />
          </mxGeometry>
        </mxCell>
        <mxCell id="6QwXeuThkFD-9IxJBqtr-469" value="" style="endArrow=none;html=1;rounded=0;strokeWidth=6;strokeColor=#5D5C5E;" edge="1" parent="1">
          <mxGeometry width="50" height="50" relative="1" as="geometry">
            <mxPoint x="679.78" y="2910" as="sourcePoint" />
            <mxPoint x="679.78" y="2820" as="targetPoint" />
          </mxGeometry>
        </mxCell>
        <mxCell id="6QwXeuThkFD-9IxJBqtr-470" value="" style="endArrow=none;html=1;rounded=0;strokeWidth=6;strokeColor=#5D5C5E;" edge="1" parent="1">
          <mxGeometry width="50" height="50" relative="1" as="geometry">
            <mxPoint x="680" y="3180" as="sourcePoint" />
            <mxPoint x="680" y="3090" as="targetPoint" />
          </mxGeometry>
        </mxCell>
        <mxCell id="6QwXeuThkFD-9IxJBqtr-471" value="" style="endArrow=none;html=1;rounded=0;strokeWidth=6;strokeColor=#5D5C5E;" edge="1" parent="1">
          <mxGeometry width="50" height="50" relative="1" as="geometry">
            <mxPoint x="659.7" y="2910" as="sourcePoint" />
            <mxPoint x="659.7" y="2820" as="targetPoint" />
          </mxGeometry>
        </mxCell>
        <mxCell id="6QwXeuThkFD-9IxJBqtr-472" value="" style="rounded=0;whiteSpace=wrap;html=1;strokeColor=#C2C2C2;fillColor=none;strokeWidth=8;" vertex="1" parent="1">
          <mxGeometry x="1420" y="3160" width="160" height="160" as="geometry" />
        </mxCell>
        <mxCell id="6QwXeuThkFD-9IxJBqtr-473" value="" style="ellipse;whiteSpace=wrap;html=1;fillColor=none;strokeWidth=6;strokeColor=#B6F0EA;" vertex="1" parent="1">
          <mxGeometry x="1470" y="2850" width="60" height="60" as="geometry" />
        </mxCell>
        <mxCell id="6QwXeuThkFD-9IxJBqtr-474" value="" style="ellipse;whiteSpace=wrap;html=1;fillColor=none;strokeWidth=6;strokeColor=#B6F0EA;" vertex="1" parent="1">
          <mxGeometry x="1470" y="3090" width="60" height="60" as="geometry" />
        </mxCell>
        <mxCell id="6QwXeuThkFD-9IxJBqtr-475" value="" style="rounded=0;whiteSpace=wrap;html=1;strokeColor=#C2C2C2;fillColor=none;strokeWidth=8;" vertex="1" parent="1">
          <mxGeometry x="1420" y="2680" width="160" height="160" as="geometry" />
        </mxCell>
        <mxCell id="6QwXeuThkFD-9IxJBqtr-477" value="" style="endArrow=none;html=1;rounded=0;strokeWidth=6;strokeColor=#5D5C5E;" edge="1" parent="1">
          <mxGeometry width="50" height="50" relative="1" as="geometry">
            <mxPoint x="1690" y="2820.35" as="sourcePoint" />
            <mxPoint x="1590" y="2819.65" as="targetPoint" />
          </mxGeometry>
        </mxCell>
        <mxCell id="6QwXeuThkFD-9IxJBqtr-478" value="" style="endArrow=none;html=1;rounded=0;strokeWidth=6;strokeColor=#5D5C5E;" edge="1" parent="1">
          <mxGeometry width="50" height="50" relative="1" as="geometry">
            <mxPoint x="1690" y="3180.11" as="sourcePoint" />
            <mxPoint x="1590" y="3179.76" as="targetPoint" />
          </mxGeometry>
        </mxCell>
        <mxCell id="6QwXeuThkFD-9IxJBqtr-480" value="" style="endArrow=none;html=1;rounded=0;strokeWidth=6;strokeColor=#FFFFFF;" edge="1" parent="1">
          <mxGeometry width="50" height="50" relative="1" as="geometry">
            <mxPoint x="1603" y="3340" as="sourcePoint" />
            <mxPoint x="1335" y="3340" as="targetPoint" />
          </mxGeometry>
        </mxCell>
        <mxCell id="6QwXeuThkFD-9IxJBqtr-481" value="" style="endArrow=none;html=1;rounded=0;strokeWidth=6;strokeColor=#FFFFFF;" edge="1" parent="1">
          <mxGeometry width="50" height="50" relative="1" as="geometry">
            <mxPoint x="1604" y="2660" as="sourcePoint" />
            <mxPoint x="1336" y="2660" as="targetPoint" />
          </mxGeometry>
        </mxCell>
        <mxCell id="6QwXeuThkFD-9IxJBqtr-482" value="" style="endArrow=none;html=1;rounded=0;strokeWidth=6;strokeColor=#52A1F0;" edge="1" parent="1">
          <mxGeometry width="50" height="50" relative="1" as="geometry">
            <mxPoint x="815" y="2880" as="sourcePoint" />
            <mxPoint x="930" y="2880" as="targetPoint" />
          </mxGeometry>
        </mxCell>
        <mxCell id="6QwXeuThkFD-9IxJBqtr-483" value="" style="endArrow=none;html=1;rounded=0;strokeWidth=6;strokeColor=#52A1F0;" edge="1" parent="1">
          <mxGeometry width="50" height="50" relative="1" as="geometry">
            <mxPoint x="815" y="3119.76" as="sourcePoint" />
            <mxPoint x="930" y="3119.76" as="targetPoint" />
          </mxGeometry>
        </mxCell>
        <mxCell id="6QwXeuThkFD-9IxJBqtr-484" value="" style="endArrow=none;html=1;rounded=0;strokeWidth=6;strokeColor=#52A1F0;" edge="1" parent="1">
          <mxGeometry width="50" height="50" relative="1" as="geometry">
            <mxPoint x="690" y="3120" as="sourcePoint" />
            <mxPoint x="745" y="3120" as="targetPoint" />
          </mxGeometry>
        </mxCell>
        <mxCell id="6QwXeuThkFD-9IxJBqtr-485" value="" style="endArrow=none;html=1;rounded=0;strokeWidth=6;strokeColor=#52A1F0;" edge="1" parent="1">
          <mxGeometry width="50" height="50" relative="1" as="geometry">
            <mxPoint x="690" y="2879.89" as="sourcePoint" />
            <mxPoint x="745" y="2879.89" as="targetPoint" />
          </mxGeometry>
        </mxCell>
        <mxCell id="6QwXeuThkFD-9IxJBqtr-486" value="" style="endArrow=none;html=1;rounded=0;strokeWidth=6;strokeColor=#52A1F0;" edge="1" parent="1">
          <mxGeometry width="50" height="50" relative="1" as="geometry">
            <mxPoint x="575" y="2879.7599999999998" as="sourcePoint" />
            <mxPoint x="630" y="2879.7599999999998" as="targetPoint" />
          </mxGeometry>
        </mxCell>
        <mxCell id="6QwXeuThkFD-9IxJBqtr-487" value="" style="endArrow=none;html=1;rounded=0;strokeWidth=6;strokeColor=#52A1F0;" edge="1" parent="1">
          <mxGeometry width="50" height="50" relative="1" as="geometry">
            <mxPoint x="575" y="3119.7599999999998" as="sourcePoint" />
            <mxPoint x="630" y="3119.7599999999998" as="targetPoint" />
          </mxGeometry>
        </mxCell>
        <mxCell id="6QwXeuThkFD-9IxJBqtr-488" value="" style="endArrow=none;html=1;rounded=0;strokeWidth=6;strokeColor=#52A1F0;" edge="1" parent="1">
          <mxGeometry width="50" height="50" relative="1" as="geometry">
            <mxPoint x="1110" y="2879.71" as="sourcePoint" />
            <mxPoint x="1225" y="2879.71" as="targetPoint" />
          </mxGeometry>
        </mxCell>
        <mxCell id="6QwXeuThkFD-9IxJBqtr-489" value="" style="endArrow=none;html=1;rounded=0;strokeWidth=6;strokeColor=#52A1F0;" edge="1" parent="1">
          <mxGeometry width="50" height="50" relative="1" as="geometry">
            <mxPoint x="1110" y="3119.71" as="sourcePoint" />
            <mxPoint x="1225" y="3119.71" as="targetPoint" />
          </mxGeometry>
        </mxCell>
        <mxCell id="6QwXeuThkFD-9IxJBqtr-490" value="" style="endArrow=none;html=1;rounded=0;strokeWidth=6;strokeColor=#52A1F0;" edge="1" parent="1">
          <mxGeometry width="50" height="50" relative="1" as="geometry">
            <mxPoint x="1295" y="3119.8599999999997" as="sourcePoint" />
            <mxPoint x="1420" y="3120" as="targetPoint" />
          </mxGeometry>
        </mxCell>
        <mxCell id="6QwXeuThkFD-9IxJBqtr-491" value="" style="endArrow=none;html=1;rounded=0;strokeWidth=6;strokeColor=#52A1F0;" edge="1" parent="1">
          <mxGeometry width="50" height="50" relative="1" as="geometry">
            <mxPoint x="1295" y="2879.8599999999997" as="sourcePoint" />
            <mxPoint x="1420" y="2880" as="targetPoint" />
          </mxGeometry>
        </mxCell>
        <mxCell id="6QwXeuThkFD-9IxJBqtr-492" value="" style="endArrow=none;html=1;rounded=0;strokeWidth=6;strokeColor=#52A1F0;" edge="1" parent="1">
          <mxGeometry width="50" height="50" relative="1" as="geometry">
            <mxPoint x="1580" y="2879.58" as="sourcePoint" />
            <mxPoint x="1690" y="2880" as="targetPoint" />
          </mxGeometry>
        </mxCell>
        <mxCell id="6QwXeuThkFD-9IxJBqtr-493" value="" style="endArrow=none;html=1;rounded=0;strokeWidth=6;strokeColor=#52A1F0;" edge="1" parent="1">
          <mxGeometry width="50" height="50" relative="1" as="geometry">
            <mxPoint x="1580" y="3119.79" as="sourcePoint" />
            <mxPoint x="1690" y="3120.21" as="targetPoint" />
          </mxGeometry>
        </mxCell>
        <mxCell id="6QwXeuThkFD-9IxJBqtr-495" value="" style="rounded=0;whiteSpace=wrap;html=1;strokeColor=#FFFFFF;fillColor=none;strokeWidth=6;" vertex="1" parent="1">
          <mxGeometry x="740" y="2800" width="80" height="40" as="geometry" />
        </mxCell>
        <mxCell id="6QwXeuThkFD-9IxJBqtr-497" value="" style="rounded=0;whiteSpace=wrap;html=1;strokeColor=#FFFFFF;fillColor=none;strokeWidth=6;" vertex="1" parent="1">
          <mxGeometry x="740" y="3160" width="80" height="40" as="geometry" />
        </mxCell>
        <mxCell id="6QwXeuThkFD-9IxJBqtr-498" value="" style="rounded=0;whiteSpace=wrap;html=1;strokeColor=#FFFFFF;fillColor=none;strokeWidth=6;" vertex="1" parent="1">
          <mxGeometry x="1220" y="3160" width="80" height="40" as="geometry" />
        </mxCell>
        <mxCell id="6QwXeuThkFD-9IxJBqtr-499" value="" style="rounded=0;whiteSpace=wrap;html=1;strokeColor=#FFFFFF;fillColor=none;strokeWidth=6;" vertex="1" parent="1">
          <mxGeometry x="1220" y="2800" width="80" height="40" as="geometry" />
        </mxCell>
        <mxCell id="6QwXeuThkFD-9IxJBqtr-504" value="" style="endArrow=none;html=1;rounded=0;strokeWidth=6;strokeColor=#5D5C5E;" edge="1" parent="1">
          <mxGeometry width="50" height="50" relative="1" as="geometry">
            <mxPoint x="1110" y="3179.57" as="sourcePoint" />
            <mxPoint x="1210" y="3179.76" as="targetPoint" />
          </mxGeometry>
        </mxCell>
        <mxCell id="6QwXeuThkFD-9IxJBqtr-505" value="" style="endArrow=none;html=1;rounded=0;strokeWidth=6;strokeColor=#5D5C5E;" edge="1" parent="1">
          <mxGeometry width="50" height="50" relative="1" as="geometry">
            <mxPoint x="830" y="3179.57" as="sourcePoint" />
            <mxPoint x="930" y="3179.76" as="targetPoint" />
          </mxGeometry>
        </mxCell>
        <mxCell id="6QwXeuThkFD-9IxJBqtr-506" value="" style="endArrow=none;html=1;rounded=0;strokeWidth=6;strokeColor=#5D5C5E;" edge="1" parent="1">
          <mxGeometry width="50" height="50" relative="1" as="geometry">
            <mxPoint x="1110" y="2819.6400000000003" as="sourcePoint" />
            <mxPoint x="1210" y="2819.8300000000004" as="targetPoint" />
          </mxGeometry>
        </mxCell>
        <mxCell id="6QwXeuThkFD-9IxJBqtr-507" value="" style="endArrow=none;html=1;rounded=0;strokeWidth=6;strokeColor=#5D5C5E;" edge="1" parent="1">
          <mxGeometry width="50" height="50" relative="1" as="geometry">
            <mxPoint x="830" y="2819.6400000000003" as="sourcePoint" />
            <mxPoint x="930" y="2819.8300000000004" as="targetPoint" />
          </mxGeometry>
        </mxCell>
        <mxCell id="6QwXeuThkFD-9IxJBqtr-508" value="" style="endArrow=none;html=1;rounded=0;strokeWidth=6;strokeColor=#5D5C5E;" edge="1" parent="1">
          <mxGeometry width="50" height="50" relative="1" as="geometry">
            <mxPoint x="1310" y="2819.76" as="sourcePoint" />
            <mxPoint x="1410" y="2819.9500000000003" as="targetPoint" />
          </mxGeometry>
        </mxCell>
        <mxCell id="6QwXeuThkFD-9IxJBqtr-509" value="" style="endArrow=none;html=1;rounded=0;strokeWidth=6;strokeColor=#5D5C5E;" edge="1" parent="1">
          <mxGeometry width="50" height="50" relative="1" as="geometry">
            <mxPoint x="1310" y="3179.76" as="sourcePoint" />
            <mxPoint x="1410" y="3179.9500000000003" as="targetPoint" />
          </mxGeometry>
        </mxCell>
      </root>
    </mxGraphModel>
  </diagram>
</mxfile>
